<mxfile host="Electron" modified="2024-05-12T00:12:12.455Z" agent="Mozilla/5.0 (Macintosh; Intel Mac OS X 10_15_7) AppleWebKit/537.36 (KHTML, like Gecko) draw.io/24.2.5 Chrome/120.0.6099.109 Electron/28.1.0 Safari/537.36" etag="WHr94JM-L0TVvTTIRBb8" version="24.2.5" type="device">
  <diagram name="第 1 页" id="KEJi5IxyzeJKvHVy5ELs">
    <mxGraphModel dx="1194" dy="727" grid="1" gridSize="10" guides="1" tooltips="1" connect="1" arrows="1" fold="1" page="1" pageScale="1" pageWidth="827" pageHeight="1169" math="0" shadow="0">
      <root>
        <mxCell id="0" />
        <mxCell id="1" parent="0" />
        <mxCell id="DyGmW9SaAgfCgfKz2XMk-5" value="EventLoop" style="swimlane;fontStyle=1;align=center;verticalAlign=top;childLayout=stackLayout;horizontal=1;startSize=26;horizontalStack=0;resizeParent=1;resizeParentMax=0;resizeLast=0;collapsible=1;marginBottom=0;whiteSpace=wrap;html=1;" parent="1" vertex="1">
          <mxGeometry x="204" y="130" width="210" height="134" as="geometry">
            <mxRectangle x="280" y="110" width="100" height="30" as="alternateBounds" />
          </mxGeometry>
        </mxCell>
        <mxCell id="DyGmW9SaAgfCgfKz2XMk-6" value="- looping_: bool" style="text;strokeColor=none;fillColor=none;align=left;verticalAlign=top;spacingLeft=4;spacingRight=4;overflow=hidden;rotatable=0;points=[[0,0.5],[1,0.5]];portConstraint=eastwest;whiteSpace=wrap;html=1;" parent="DyGmW9SaAgfCgfKz2XMk-5" vertex="1">
          <mxGeometry y="26" width="210" height="24" as="geometry" />
        </mxCell>
        <mxCell id="DyGmW9SaAgfCgfKz2XMk-17" value="- threadID_: int" style="text;strokeColor=none;fillColor=none;align=left;verticalAlign=top;spacingLeft=4;spacingRight=4;overflow=hidden;rotatable=0;points=[[0,0.5],[1,0.5]];portConstraint=eastwest;whiteSpace=wrap;html=1;" parent="DyGmW9SaAgfCgfKz2XMk-5" vertex="1">
          <mxGeometry y="50" width="210" height="24" as="geometry" />
        </mxCell>
        <mxCell id="DyGmW9SaAgfCgfKz2XMk-7" value="" style="line;strokeWidth=1;fillColor=none;align=left;verticalAlign=middle;spacingTop=-1;spacingLeft=3;spacingRight=3;rotatable=0;labelPosition=right;points=[];portConstraint=eastwest;strokeColor=inherit;" parent="DyGmW9SaAgfCgfKz2XMk-5" vertex="1">
          <mxGeometry y="74" width="210" height="8" as="geometry" />
        </mxCell>
        <mxCell id="DyGmW9SaAgfCgfKz2XMk-8" value="+ loop():&amp;nbsp; void" style="text;strokeColor=none;fillColor=none;align=left;verticalAlign=top;spacingLeft=4;spacingRight=4;overflow=hidden;rotatable=0;points=[[0,0.5],[1,0.5]];portConstraint=eastwest;whiteSpace=wrap;html=1;" parent="DyGmW9SaAgfCgfKz2XMk-5" vertex="1">
          <mxGeometry y="82" width="210" height="26" as="geometry" />
        </mxCell>
        <mxCell id="DyGmW9SaAgfCgfKz2XMk-19" value="+ assertInLoopThread():&amp;nbsp; void" style="text;strokeColor=none;fillColor=none;align=left;verticalAlign=top;spacingLeft=4;spacingRight=4;overflow=hidden;rotatable=0;points=[[0,0.5],[1,0.5]];portConstraint=eastwest;whiteSpace=wrap;html=1;" parent="DyGmW9SaAgfCgfKz2XMk-5" vertex="1">
          <mxGeometry y="108" width="210" height="26" as="geometry" />
        </mxCell>
      </root>
    </mxGraphModel>
  </diagram>
</mxfile>
